<svg xmlns="http://www.w3.org/2000/svg" viewBox="0 0 372.61 65.99">
  <defs>
    <style>
      .cls-1 { fill: #fff; }
      .cls-2 { fill: #d2ff00; }
    </style>
  </defs>
  
  <!-- Fondo verde -->
  <rect class="cls-2" width="28" height="5.6"/>
  
  <!-- Texto EUROPBOTS -->
  <g class="cls-1">
    <!-- E -->
    <path d="M52.72,25.2c1.86-.62,2.8-2.49,2.8-5.6,0-5.6-3.11-8.4-9.33-8.4H0v5.6h45.24c3.11,0,4.66.94,4.66,2.8s-1.25,2.8-3.73,2.8H0v5.6h46.18c2.49,0,3.73.94,3.73,2.8s-1.55,2.8-4.66,2.8h-17.73v5.6h18.67c6.22,0,9.33-2.8,9.33-8.4,0-3.11-.94-4.97-2.8-5.6h.01Z"/>
    
    <!-- U -->
    <path d="M73.63,4.43h28v5.6h-28s0-5.6,0-5.6ZM73.63,15.63h28v5.6h-28s0-5.6,0-5.6ZM73.63,32.43v-5.6h28v5.6h-28Z"/>
    
    <!-- R -->
    <path d="M129.63,4.43h5.6v18.67c0,6.22-3.11,9.33-9.33,9.33h-9.33c-6.22,0-9.33-3.11-9.33-9.33V4.43h5.6v17.9c0,3,1.5,4.5,4.49,4.5h7.82c3,0,4.5-1.51,4.5-4.52V4.43h-.02Z"/>
    
    <!-- O -->
    <path d="M149.15,21.23h-2.73v11.2h-5.6V4.43h18.67c6.22,0,9.33,2.8,9.33,8.4s-3.11,8.4-9.33,8.4h-1.73l13.14,11.2h-8.6l-13.14-11.2h0ZM158.55,15.63c3.11,0,4.66-.94,4.66-2.8s-1.55-2.8-4.66-2.8h-12.13v5.6h12.13Z"/>
    
    <!-- P -->
    <path d="M193.08,32.43h-9.33c-6.22,0-9.33-3.11-9.33-9.33v-9.33c0-6.22,3.11-9.33,9.33-9.33h9.33c6.22,0,9.33,3.11,9.33,9.33v9.33c0,6.21-3.11,9.32-9.33,9.33ZM192.15,26.82c3.11,0,4.66-1.55,4.66-4.66v-7.47c0-3.11-1.55-4.66-4.66-4.66h-8.4c-2.49,0-3.73,1.55-3.73,4.66v7.47c0,3.11,1.55,4.66,4.66,4.66h7.47Z"/>
    
    <!-- B -->
    <path d="M213.61,32.43h-5.6V4.43h18.67c6.22,0,9.33,2.8,9.33,8.4s-3.11,8.4-9.33,8.4h-13.07v11.2h0ZM225.75,15.63c3.11,0,4.66-.94,4.66-2.8s-1.55-2.8-4.66-2.8h-12.13v5.6h12.13Z"/>
    
    <!-- O -->
    <path d="M260.28,4.43c6.22,0,9.33,2.8,9.33,8.4,0,3.11-.94,4.98-2.8,5.6,1.86.62,2.8,2.49,2.8,5.6,0,5.6-3.11,8.4-9.33,8.4h-18.67V4.43h18.67ZM260.28,15.63c2.49,0,3.73-.94,3.73-2.8s-1.55-2.8-4.66-2.8h-12.13v5.6h13.07ZM260.28,21.23h-13.07v5.6h12.13c3.11,0,4.66-.94,4.66-2.8s-1.25-2.8-3.73-2.8h0Z"/>
    
    <!-- T -->
    <path d="M293.88,32.43h-9.33c-6.22,0-9.33-3.11-9.33-9.33v-9.33c0-6.22,3.11-9.33,9.33-9.33h9.33c6.22,0,9.33,3.11,9.33,9.33v9.33c0,6.21-3.11,9.32-9.33,9.33ZM292.94,26.82c3.11,0,4.66-1.55,4.66-4.66v-7.47c0-3.11-1.55-4.66-4.66-4.66h-8.4c-2.49,0-3.73,1.55-3.73,4.66v7.47c0,3.11,1.55,4.66,4.66,4.66h7.47Z"/>
    
    <!-- S -->
    <path d="M320,10.03h-11.18v-5.6h27.97v5.6h-11.2v22.4h-5.6V10.03h.01Z"/>
    
    <!-- S -->
    <path d="M351.74,21.23c-6.22,0-9.33-2.8-9.33-8.4s3.11-8.4,9.33-8.4h18.67v5.6h-17.73c-3.11,0-4.66.94-4.66,2.8s1.55,2.8,4.66,2.8h8.4c6.22,0,9.33,2.8,9.33,8.4s-3.11,8.4-9.33,8.4h-18.67v-5.6h17.73c3.11,0,4.66-.94,4.66-2.8s-1.55-2.8-4.66-2.8h-8.4Z"/>
  </g>
</svg>