<svg xmlns="http://www.w3.org/2000/svg" width="148" height="148" viewBox="0 0 148 148" fill="none"><rect width="148" height="148" rx="74" fill="#D2FF00"></rect><g clip-path="url(#clip0_177_21)"><path d="M74.4277 41H27.998V50.2888H74.4277V41Z" fill="black"></path><path d="M115.408 82.7852C118.502 81.7539 120.053 78.6601 120.053 73.4963C120.053 64.2075 114.896 59.5704 104.576 59.5704H74.4203H27.9907V68.8592H73.6158H103.018C108.175 68.8592 110.757 70.4098 110.757 73.5036C110.757 76.5975 108.694 78.1481 104.569 78.1481H74.413H27.9834V87.4369H73.6085H104.562C108.687 87.4369 110.749 88.9875 110.749 92.0813C110.749 95.1752 108.167 96.7258 103.011 96.7258H73.6085V106.015H104.562C114.882 106.015 120.038 101.37 120.038 92.0887C120.038 86.9322 118.488 83.8384 115.394 82.7998L115.408 82.7852Z" fill="black"></path></g><defs><clipPath id="clip0_177_21"><rect width="92.0547" height="65" fill="white" transform="translate(28 41)"></rect></clipPath></defs></svg>